<?xml version="1.0" standalone="no"?>
<!DOCTYPE svg PUBLIC "-//W3C//DTD SVG 20010904//EN"
 "http://www.w3.org/TR/2001/REC-SVG-20010904/DTD/svg10.dtd">
<svg version="1.0" xmlns="http://www.w3.org/2000/svg"
 width="700.000000pt" height="700.000000pt" viewBox="0 0 700.000000 700.000000"
 preserveAspectRatio="xMidYMid meet">
<metadata>
Created by potrace 1.14, written by Peter Selinger 2001-2017
</metadata>
<g transform="translate(0.000000,700.000000) scale(0.100000,-0.100000)"
fill="#000000" stroke="none">
<path d="M5030 6082 c-99 -7 -287 -51 -316 -73 -6 -5 -14 -6 -17 -2 -4 3 -7 1
-7 -6 0 -7 -4 -10 -9 -7 -5 3 -14 -1 -21 -9 -7 -8 -18 -15 -25 -15 -16 0 -153
-90 -221 -144 -28 -22 -67 -53 -86 -68 -19 -15 -46 -37 -59 -50 -56 -50 -173
-154 -198 -175 -15 -12 -52 -46 -83 -75 -30 -29 -104 -98 -164 -153 -146 -135
-597 -586 -659 -659 -27 -32 -54 -63 -60 -70 -28 -32 -95 -127 -120 -171 -16
-27 -32 -52 -35 -55 -6 -6 -65 -121 -65 -129 -1 -3 -6 -15 -12 -27 -13 -23
-53 -121 -59 -144 -6 -26 -45 -144 -55 -168 -5 -12 -14 -24 -21 -26 -7 -3 -44
-14 -83 -26 -87 -27 -289 -111 -293 -122 -2 -4 -12 -8 -23 -8 -10 0 -19 -4
-19 -10 0 -5 -5 -10 -12 -10 -11 0 -187 -106 -198 -120 -3 -3 -23 -19 -45 -36
-22 -16 -45 -33 -51 -39 -6 -5 -33 -28 -60 -50 -27 -22 -61 -52 -76 -67 -16
-14 -28 -25 -28 -23 0 2 -10 -6 -23 -18 -13 -12 -58 -53 -101 -92 -289 -259
-741 -698 -847 -825 -30 -35 -62 -73 -71 -84 -10 -11 -18 -26 -18 -33 0 -7 -4
-13 -9 -13 -11 0 -74 -121 -91 -175 -7 -22 -12 -40 -11 -40 1 0 -3 -13 -10
-30 -6 -16 -13 -75 -15 -130 -3 -101 9 -176 39 -247 9 -21 14 -38 11 -38 -2 0
11 -21 29 -48 19 -26 36 -52 38 -58 13 -35 143 -154 209 -190 19 -10 37 -22
40 -25 18 -22 235 -93 317 -105 17 -2 52 -8 78 -13 59 -11 374 -11 423 -1 20
5 57 11 82 14 62 7 108 15 155 28 22 5 49 12 60 14 82 16 352 116 439 164 101
55 131 72 147 86 8 8 19 14 23 14 9 0 62 38 96 68 13 12 28 22 32 22 3 0 13 6
20 13 7 7 33 28 58 47 25 19 47 38 48 42 2 5 10 8 17 8 7 0 15 4 17 8 2 4 32
32 68 61 36 30 67 57 70 60 3 3 28 24 55 46 28 22 61 50 75 61 14 12 48 41 75
64 48 41 166 144 189 165 96 88 146 125 177 129 76 10 166 39 243 76 81 39
137 70 146 81 3 3 25 19 50 34 25 16 81 56 124 89 44 34 102 79 130 100 28 21
53 42 56 45 3 3 41 35 85 70 44 36 88 72 97 80 9 9 23 21 30 26 7 6 58 49 113
96 55 47 111 94 124 105 13 10 31 26 40 34 9 9 54 49 101 90 47 41 90 80 96
85 6 6 52 48 103 95 137 125 360 355 361 371 0 3 12 19 26 35 32 37 85 116
115 174 13 25 27 47 32 48 4 2 7 7 7 12 0 4 17 43 37 87 21 43 38 80 38 83 0
3 11 32 24 65 25 65 66 204 75 250 3 17 7 44 10 60 37 199 41 395 12 590 -7
42 -8 50 -26 124 -46 189 -145 375 -269 505 -59 62 -163 146 -179 146 -6 0
-12 3 -14 8 -3 8 -114 63 -163 80 -97 34 -232 52 -335 44z m130 -772 c103
-103 139 -325 95 -580 -7 -44 -24 -110 -32 -130 -4 -8 -7 -22 -8 -30 -1 -9 -9
-31 -18 -50 -8 -19 -25 -57 -37 -83 -75 -169 -178 -288 -541 -617 -45 -41
-103 -94 -128 -117 -25 -23 -57 -51 -71 -63 -77 -66 -146 -127 -163 -143 -23
-23 -43 -10 -64 41 -15 36 -185 212 -205 212 -6 0 -19 6 -27 14 -23 20 -142
81 -173 89 -15 4 -40 12 -55 19 -30 12 -36 14 -73 21 -14 3 -32 8 -41 12 -14
5 -42 10 -86 14 -15 1 -18 31 -3 31 6 0 10 5 10 11 0 13 78 132 116 178 63 74
309 315 544 533 117 107 124 114 235 213 43 39 93 85 112 103 18 17 35 32 38
32 2 0 15 10 28 23 82 78 290 247 303 247 4 0 15 7 24 15 25 22 90 44 138 44
36 1 47 -4 82 -39z m-1641 -2116 c13 -3 37 -12 53 -20 31 -16 31 -17 -20 -74
-7 -8 -19 -24 -26 -35 -18 -25 -36 -11 -60 47 -10 24 -22 51 -27 60 -17 33
-11 41 24 34 17 -4 43 -10 56 -12z m-760 -194 c25 -84 86 -232 111 -270 9 -14
34 -51 55 -82 21 -32 42 -58 47 -58 10 0 11 -40 1 -40 -5 0 -28 -19 -54 -43
-25 -23 -74 -67 -108 -97 -35 -30 -73 -63 -85 -73 -19 -17 -72 -62 -130 -110
-11 -9 -30 -25 -41 -35 -11 -10 -51 -42 -90 -71 -38 -29 -77 -58 -85 -64 -9
-7 -33 -22 -55 -34 -22 -11 -57 -30 -77 -41 -20 -12 -45 -22 -55 -24 -10 -2
-20 -6 -23 -9 -6 -7 -149 -56 -181 -63 -13 -2 -44 -9 -69 -15 -133 -30 -270
-40 -385 -27 -90 9 -110 13 -149 30 -47 19 -55 7 115 176 110 110 173 170 373
355 27 25 53 45 57 45 5 0 9 7 9 15 0 8 6 15 14 15 8 0 16 4 18 8 3 8 93 91
208 192 41 36 81 72 90 80 9 8 36 31 60 51 25 20 57 48 73 62 15 14 27 24 27
21 0 -5 15 7 48 36 26 24 90 70 97 70 3 0 11 5 18 11 22 20 132 75 138 70 4
-3 16 -40 28 -81z"/>
</g>
</svg>
